<svg viewBox="0 0 20 20" fill="none" xmlns="http://www.w3.org/2000/svg" width="20" height="20"><path d="M11.6673 4.16667C11.6673 3.72464 11.4917 3.30072 11.1791 2.98816C10.8665 2.67559 10.4426 2.5 10.0006 2.5C9.55856 2.5 9.13464 2.67559 8.82208 2.98816C8.50952 3.30072 8.33392 3.72464 8.33392 4.16667M16.0506 8.08L17.2048 15.58C17.2413 15.8174 17.226 16.0598 17.1601 16.2908C17.0942 16.5217 16.9791 16.7357 16.8228 16.918C16.6665 17.1004 16.4727 17.2468 16.2545 17.3472C16.0364 17.4477 15.7991 17.4998 15.5589 17.5H4.44226C4.20195 17.5 3.96448 17.4481 3.74613 17.3477C3.52777 17.2474 3.3337 17.101 3.17721 16.9187C3.02072 16.7363 2.90552 16.5222 2.83951 16.2912C2.7735 16.0601 2.75823 15.8175 2.79476 15.58L3.94892 8.08C4.00947 7.68633 4.20899 7.32735 4.51136 7.06809C4.81373 6.80882 5.19895 6.66642 5.59726 6.66667H14.4039C14.8021 6.66662 15.1871 6.80911 15.4893 7.06836C15.7915 7.3276 15.9901 7.68647 16.0506 8.08Z" stroke="currentColor" stroke-width="1.5" stroke-linecap="round" stroke-linejoin="round"></path></svg>
