<svg xmlns="http://www.w3.org/2000/svg" width="84" height="80" viewBox="0 0 84 80" fill="none"><path fill-rule="evenodd" clip-rule="evenodd" d="M27.2032 10.8813C29.3495 10.8813 31.0894 9.14138 31.0894 6.9951C31.0894 4.84883 29.3495 3.10894 27.2032 3.10894C25.0569 3.10894 23.317 4.84883 23.317 6.9951C23.317 9.14138 25.0569 10.8813 27.2032 10.8813ZM27.2032 13.9902C27.7097 13.9902 28.2036 13.9364 28.6796 13.8341L31.7307 19.9365C26.6585 22.082 22.8965 26.7187 21.9787 32.3128L13.9037 31.4156C13.9606 31.0561 13.9902 30.6876 13.9902 30.3121C13.9902 26.4489 10.8584 23.317 6.9951 23.317C3.13181 23.317 0 26.4489 0 30.3121C0 34.1754 3.13181 37.3073 6.9951 37.3073C9.9317 37.3073 12.4457 35.4977 13.4827 32.9328L21.8003 33.857C21.7753 34.2266 21.7626 34.5996 21.7626 34.9755C21.7626 40.3964 24.4052 45.2001 28.4726 48.1684L16.1686 65.9409C15.2708 65.5218 14.2692 65.2877 13.213 65.2877C9.34969 65.2877 6.21787 68.4195 6.21787 72.2828C6.21787 76.146 9.34969 79.2779 13.213 79.2779C17.0763 79.2779 20.2081 76.146 20.2081 72.2828C20.2081 70.0336 19.1466 68.0323 17.4972 66.7527L29.7707 49.0243C32.2056 50.4684 35.0482 51.2974 38.0845 51.2974C39.3629 51.2974 40.6071 51.1504 41.8009 50.8724L44.4411 57.9131C42.0892 58.7997 40.4162 61.0711 40.4162 63.7332C40.4162 67.1672 43.2 69.9511 46.634 69.9511C50.0681 69.9511 52.8519 67.1672 52.8519 63.7332C52.8519 60.2992 50.0681 57.5153 46.634 57.5153C46.4082 57.5153 46.1851 57.5274 45.9655 57.5509L43.3012 50.446C46.6496 49.3173 49.512 47.132 51.4917 44.2866L59.6747 47.3552C59.2844 48.3341 59.0698 49.4021 59.0698 50.5202C59.0698 55.242 62.8976 59.0697 67.6193 59.0697C72.3411 59.0697 76.1689 55.242 76.1689 50.5202C76.1689 45.7984 72.3411 41.9706 67.6193 41.9706C64.5735 41.9706 61.8996 43.5634 60.3852 45.9615L52.3335 42.9421C53.6537 40.5858 54.4064 37.8685 54.4064 34.9755C54.4064 34.765 54.4024 34.5554 54.3945 34.3468L68.3574 27.4005C69.9004 29.6294 72.4755 31.0894 75.3917 31.0894C80.1135 31.0894 83.9412 27.2616 83.9412 22.5398C83.9412 17.818 80.1135 13.9902 75.3917 13.9902C70.6699 13.9902 66.8421 17.818 66.8421 22.5398C66.8421 23.789 67.11 24.9756 67.5915 26.0453L54.2468 32.6841C53.6488 28.4275 51.4089 24.6977 48.188 22.1558L51.8572 18.1087C52.6351 18.4588 53.498 18.6536 54.4064 18.6536C57.8404 18.6536 60.6243 15.8698 60.6243 12.4358C60.6243 9.00173 57.8404 6.2179 54.4064 6.2179C50.9724 6.2179 48.1885 9.00173 48.1885 12.4358C48.1885 14.3943 49.0941 16.1414 50.5093 17.2811L46.9146 21.246C44.3691 19.6055 41.3379 18.6536 38.0845 18.6536C36.3826 18.6536 34.7416 18.9141 33.1991 19.3973L30.167 13.3331C32.5487 12.2175 34.1983 9.79894 34.1983 6.9951C34.1983 3.13181 31.0665 0 27.2032 0C23.3399 0 20.2081 3.13181 20.2081 6.9951C20.2081 10.8584 23.3399 13.9902 27.2032 13.9902ZM13.213 76.1689C15.3592 76.1689 17.0991 74.429 17.0991 72.2828C17.0991 70.1365 15.3592 68.3966 13.213 68.3966C11.0667 68.3966 9.32681 70.1365 9.32681 72.2828C9.32681 74.429 11.0667 76.1689 13.213 76.1689ZM73.06 50.5202C73.06 53.525 70.6241 55.9608 67.6193 55.9608C64.6146 55.9608 62.1787 53.525 62.1787 50.5202C62.1787 47.5154 64.6146 45.0795 67.6193 45.0795C70.6241 45.0795 73.06 47.5154 73.06 50.5202ZM75.3917 27.9804C78.3964 27.9804 80.8323 25.5446 80.8323 22.5398C80.8323 19.535 78.3964 17.0991 75.3917 17.0991C72.3869 17.0991 69.951 19.535 69.951 22.5398C69.951 25.5446 72.3869 27.9804 75.3917 27.9804ZM57.5153 12.4358C57.5153 14.1528 56.1234 15.5447 54.4064 15.5447C52.6894 15.5447 51.2975 14.1528 51.2975 12.4358C51.2975 10.7187 52.6894 9.32683 54.4064 9.32683C56.1234 9.32683 57.5153 10.7187 57.5153 12.4358ZM46.634 66.8421C48.3511 66.8421 49.743 65.4502 49.743 63.7332C49.743 62.0162 48.3511 60.6243 46.634 60.6243C44.917 60.6243 43.5251 62.0162 43.5251 63.7332C43.5251 65.4502 44.917 66.8421 46.634 66.8421ZM10.8813 30.3121C10.8813 32.4584 9.14138 34.1983 6.9951 34.1983C4.84883 34.1983 3.10894 32.4584 3.10894 30.3121C3.10894 28.1659 4.84883 26.426 6.9951 26.426C9.14138 26.426 10.8813 28.1659 10.8813 30.3121ZM49.743 34.9755C49.743 41.4143 44.5233 46.634 38.0845 46.634C31.6456 46.634 26.426 41.4143 26.426 34.9755C26.426 28.5367 31.6456 23.317 38.0845 23.317C44.5233 23.317 49.743 28.5367 49.743 34.9755ZM43.5251 34.9755C43.5251 37.9803 41.0893 40.4161 38.0845 40.4161C35.0797 40.4161 32.6439 37.9803 32.6439 34.9755C32.6439 31.9707 35.0797 29.5348 38.0845 29.5348C41.0893 29.5348 43.5251 31.9707 43.5251 34.9755ZM48.1885 34.9755C48.1885 40.5558 43.6648 45.0795 38.0845 45.0795C32.5042 45.0795 27.9804 40.5558 27.9804 34.9755C27.9804 29.3952 32.5042 24.8714 38.0845 24.8714C43.6648 24.8714 48.1885 29.3952 48.1885 34.9755ZM41.9706 34.9755C41.9706 37.1218 40.2307 38.8617 38.0844 38.8617C35.9382 38.8617 34.1983 37.1218 34.1983 34.9755C34.1983 32.8292 35.9382 31.0893 38.0844 31.0893C40.2307 31.0893 41.9706 32.8292 41.9706 34.9755Z" fill="#EB5A3A"></path></svg>
