<svg width="40" height="40" viewBox="0 0 40 40" fill="none" xmlns="http://www.w3.org/2000/svg">
<path d="M32.5 12.8125H27.1875V8.75C27.1875 6.84376 26.4302 5.01559 25.0823 3.66767C23.7344 2.31975 21.9062 1.5625 20 1.5625C18.0938 1.5625 16.2656 2.31975 14.9177 3.66767C13.5698 5.01559 12.8125 6.84376 12.8125 8.75V12.8125H7.5C6.91984 12.8125 6.36344 13.043 5.9532 13.4532C5.54297 13.8634 5.3125 14.4198 5.3125 15V32.5C5.3125 33.0802 5.54297 33.6366 5.9532 34.0468C6.36344 34.457 6.91984 34.6875 7.5 34.6875H32.5C33.0802 34.6875 33.6366 34.457 34.0468 34.0468C34.457 33.6366 34.6875 33.0802 34.6875 32.5V15C34.6875 14.4198 34.457 13.8634 34.0468 13.4532C33.6366 13.043 33.0802 12.8125 32.5 12.8125ZM14.6875 8.75C14.6875 7.34104 15.2472 5.98978 16.2435 4.9935C17.2398 3.99721 18.591 3.4375 20 3.4375C21.409 3.4375 22.7602 3.99721 23.7565 4.9935C24.7528 5.98978 25.3125 7.34104 25.3125 8.75V12.8125H14.6875V8.75ZM32.8125 32.5C32.8125 32.5829 32.7796 32.6624 32.721 32.721C32.6624 32.7796 32.5829 32.8125 32.5 32.8125H7.5C7.41712 32.8125 7.33763 32.7796 7.27903 32.721C7.22042 32.6624 7.1875 32.5829 7.1875 32.5V15C7.1875 14.9171 7.22042 14.8376 7.27903 14.779C7.33763 14.7204 7.41712 14.6875 7.5 14.6875H32.5C32.5829 14.6875 32.6624 14.7204 32.721 14.779C32.7796 14.8376 32.8125 14.9171 32.8125 15V32.5ZM20 17.8125C19.0052 17.8138 18.0455 18.1801 17.3028 18.8419C16.5601 19.5036 16.086 20.4149 15.9704 21.403C15.8548 22.391 16.1058 23.3871 16.6757 24.2025C17.2456 25.0178 18.0949 25.5957 19.0625 25.8266V28.75C19.0625 28.9986 19.1613 29.2371 19.3371 29.4129C19.5129 29.5887 19.7514 29.6875 20 29.6875C20.2486 29.6875 20.4871 29.5887 20.6629 29.4129C20.8387 29.2371 20.9375 28.9986 20.9375 28.75V25.8266C21.9051 25.5957 22.7544 25.0178 23.3243 24.2025C23.8942 23.3871 24.1452 22.391 24.0296 21.403C23.914 20.4149 23.4399 19.5036 22.6972 18.8419C21.9545 18.1801 20.9948 17.8138 20 17.8125ZM20 24.0625C19.5674 24.0625 19.1444 23.9342 18.7847 23.6938C18.425 23.4535 18.1446 23.1118 17.979 22.7121C17.8134 22.3124 17.7701 21.8726 17.8545 21.4482C17.9389 21.0239 18.1473 20.6341 18.4532 20.3282C18.7591 20.0223 19.1489 19.8139 19.5732 19.7295C19.9976 19.6451 20.4374 19.6884 20.8371 19.854C21.2368 20.0196 21.5785 20.3 21.8188 20.6597C22.0592 21.0194 22.1875 21.4424 22.1875 21.875C22.1875 22.4552 21.957 23.0116 21.5468 23.4218C21.1366 23.832 20.5802 24.0625 20 24.0625Z" fill="#5878EE"/>
</svg>
