<svg width="40" height="40" viewBox="0 0 40 40" fill="none" xmlns="http://www.w3.org/2000/svg">
<path d="M20 4.0625C16.8479 4.0625 13.7665 4.99722 11.1456 6.74845C8.5247 8.49969 6.48195 10.9888 5.27568 13.901C4.06941 16.8132 3.75379 20.0177 4.36874 23.1093C4.98369 26.2008 6.50159 29.0406 8.73049 31.2695C10.9594 33.4984 13.7992 35.0163 16.8908 35.6313C19.9823 36.2462 23.1868 35.9306 26.099 34.7243C29.0112 33.5181 31.5003 31.4753 33.2516 28.8544C35.0028 26.2335 35.9375 23.1521 35.9375 20C35.9325 15.7746 34.2518 11.7238 31.264 8.73597C28.2763 5.74818 24.2254 4.06746 20 4.0625ZM20 34.0625C17.2187 34.0625 14.4999 33.2378 12.1873 31.6925C9.87474 30.1473 8.07231 27.9511 7.00795 25.3815C5.94359 22.8119 5.66511 19.9844 6.20771 17.2565C6.75032 14.5287 8.08964 12.023 10.0563 10.0563C12.023 8.08964 14.5287 6.75031 17.2566 6.20771C19.9844 5.6651 22.8119 5.94359 25.3815 7.00794C27.9511 8.0723 30.1473 9.87473 31.6926 12.1873C33.2378 14.4999 34.0625 17.2187 34.0625 20C34.0584 23.7283 32.5755 27.3028 29.9391 29.9391C27.3028 32.5755 23.7283 34.0584 20 34.0625ZM25.9375 23.125C25.9375 24.2024 25.5095 25.2358 24.7476 25.9976C23.9858 26.7595 22.9525 27.1875 21.875 27.1875H20.9375V28.75C20.9375 28.9986 20.8387 29.2371 20.6629 29.4129C20.4871 29.5887 20.2486 29.6875 20 29.6875C19.7514 29.6875 19.5129 29.5887 19.3371 29.4129C19.1613 29.2371 19.0625 28.9986 19.0625 28.75V27.1875H16.25C16.0014 27.1875 15.7629 27.0887 15.5871 26.9129C15.4113 26.7371 15.3125 26.4986 15.3125 26.25C15.3125 26.0014 15.4113 25.7629 15.5871 25.5871C15.7629 25.4113 16.0014 25.3125 16.25 25.3125H21.875C22.4552 25.3125 23.0116 25.082 23.4218 24.6718C23.832 24.2616 24.0625 23.7052 24.0625 23.125C24.0625 22.5448 23.832 21.9884 23.4218 21.5782C23.0116 21.168 22.4552 20.9375 21.875 20.9375H18.125C17.0476 20.9375 16.0143 20.5095 15.2524 19.7476C14.4905 18.9858 14.0625 17.9524 14.0625 16.875C14.0625 15.7976 14.4905 14.7642 15.2524 14.0024C16.0143 13.2405 17.0476 12.8125 18.125 12.8125H19.0625V11.25C19.0625 11.0014 19.1613 10.7629 19.3371 10.5871C19.5129 10.4113 19.7514 10.3125 20 10.3125C20.2486 10.3125 20.4871 10.4113 20.6629 10.5871C20.8387 10.7629 20.9375 11.0014 20.9375 11.25V12.8125H23.75C23.9986 12.8125 24.2371 12.9113 24.4129 13.0871C24.5887 13.2629 24.6875 13.5014 24.6875 13.75C24.6875 13.9986 24.5887 14.2371 24.4129 14.4129C24.2371 14.5887 23.9986 14.6875 23.75 14.6875H18.125C17.5448 14.6875 16.9884 14.918 16.5782 15.3282C16.168 15.7384 15.9375 16.2948 15.9375 16.875C15.9375 17.4552 16.168 18.0116 16.5782 18.4218C16.9884 18.832 17.5448 19.0625 18.125 19.0625H21.875C22.9525 19.0625 23.9858 19.4905 24.7476 20.2524C25.5095 21.0142 25.9375 22.0476 25.9375 23.125Z" fill="#5878EE"/>
</svg>
