<svg width="40" height="40" viewBox="0 0 40 40" fill="none" xmlns="http://www.w3.org/2000/svg">
<path d="M5.9375 10V31.25C5.9375 31.3329 5.97042 31.4124 6.02903 31.471C6.08763 31.5296 6.16712 31.5625 6.25 31.5625H18.75C18.9986 31.5625 19.2371 31.6613 19.4129 31.8371C19.5887 32.0129 19.6875 32.2514 19.6875 32.5C19.6875 32.7486 19.5887 32.9871 19.4129 33.1629C19.2371 33.3387 18.9986 33.4375 18.75 33.4375H6.25C5.66984 33.4375 5.11344 33.207 4.7032 32.7968C4.29297 32.3866 4.0625 31.8302 4.0625 31.25V10C4.0625 9.41984 4.29297 8.86344 4.7032 8.4532C5.11344 8.04297 5.66984 7.8125 6.25 7.8125H14.5828C15.056 7.81317 15.5163 7.96662 15.8953 8.25L20.3125 11.5625H33.75C34.3302 11.5625 34.8866 11.793 35.2968 12.2032C35.707 12.6134 35.9375 13.1698 35.9375 13.75V18.75C35.9375 18.9986 35.8387 19.2371 35.6629 19.4129C35.4871 19.5887 35.2486 19.6875 35 19.6875C34.7514 19.6875 34.5129 19.5887 34.3371 19.4129C34.1613 19.2371 34.0625 18.9986 34.0625 18.75V13.75C34.0625 13.6671 34.0296 13.5876 33.971 13.529C33.9124 13.4704 33.8329 13.4375 33.75 13.4375H20C19.7972 13.4375 19.5998 13.3717 19.4375 13.25L14.7703 9.75C14.7162 9.70943 14.6504 9.6875 14.5828 9.6875H6.25C6.16712 9.6875 6.08763 9.72042 6.02903 9.77903C5.97042 9.83763 5.9375 9.91712 5.9375 10ZM36.8469 25.975L33.1766 29.0047L34.2953 33.525C34.3396 33.7042 34.3301 33.8924 34.2678 34.0662C34.2056 34.24 34.0934 34.3915 33.9454 34.5018C33.7974 34.6121 33.6202 34.6762 33.4359 34.6862C33.2516 34.6962 33.0684 34.6515 32.9094 34.5578L28.75 32.1094L24.5906 34.5578C24.4316 34.6515 24.2484 34.6962 24.0641 34.6862C23.8798 34.6762 23.7026 34.6121 23.5546 34.5018C23.4066 34.3915 23.2944 34.24 23.2322 34.0662C23.1699 33.8924 23.1604 33.7042 23.2047 33.525L24.3234 29.0047L20.6531 25.975C20.509 25.856 20.4036 25.6967 20.3507 25.5174C20.2978 25.3381 20.2997 25.1471 20.3561 24.9689C20.4125 24.7907 20.521 24.6334 20.6674 24.5173C20.8139 24.4012 20.9917 24.3315 21.1781 24.3172L26.0219 23.9422L27.8828 19.6281C27.9557 19.4609 28.0759 19.3185 28.2285 19.2185C28.3812 19.1186 28.5597 19.0653 28.7422 19.0653C28.9247 19.0653 29.1032 19.1186 29.2558 19.2185C29.4085 19.3185 29.5286 19.4609 29.6016 19.6281L31.4625 23.9422L36.3063 24.3172C36.4926 24.3315 36.6705 24.4012 36.8169 24.5173C36.9634 24.6334 37.0718 24.7907 37.1283 24.9689C37.1847 25.1471 37.1866 25.3381 37.1337 25.5174C37.0807 25.6967 36.9754 25.856 36.8313 25.975H36.8469ZM33.8625 26.0078L30.7641 25.7687C30.595 25.7542 30.433 25.6941 30.2954 25.5948C30.1578 25.4954 30.0498 25.3606 29.9828 25.2047L28.75 22.3656L27.525 25.2047C27.458 25.3606 27.35 25.4954 27.2124 25.5948C27.0748 25.6941 26.9128 25.7542 26.7438 25.7687L23.6453 26.0078L25.9797 27.9344C26.1159 28.047 26.2174 28.1957 26.2727 28.3635C26.328 28.5313 26.3348 28.7113 26.2922 28.8828L25.5687 31.8109L28.2812 30.2125C28.4252 30.1279 28.5892 30.0833 28.7562 30.0833C28.9233 30.0833 29.0873 30.1279 29.2313 30.2125L31.9453 31.8109L31.2203 28.8828C31.1777 28.7113 31.1845 28.5313 31.2398 28.3635C31.2951 28.1957 31.3966 28.047 31.5328 27.9344L33.8625 26.0078Z" fill="#5878EE"/>
</svg>
