<svg width="40" height="40" viewBox="0 0 40 40" fill="none" xmlns="http://www.w3.org/2000/svg">
<path d="M33.4375 15C33.4392 12.7292 32.8653 10.495 31.7696 8.50611C30.6738 6.51717 29.0919 4.83835 27.1715 3.62644C25.2511 2.41452 23.055 1.70904 20.7881 1.57587C18.5212 1.44269 16.2575 1.88617 14.2084 2.86489C12.1594 3.84361 10.3917 5.32565 9.07063 7.17261C7.74953 9.01957 6.91803 11.1712 6.65379 13.4266C6.38955 15.682 6.70118 17.9675 7.55958 20.0698C8.41798 22.1721 9.79516 24.0226 11.5625 25.4485V37.5C11.5627 37.6598 11.6037 37.8169 11.6816 37.9563C11.7596 38.0958 11.8718 38.213 12.0078 38.2969C12.1554 38.3891 12.326 38.4378 12.5 38.4375C12.6453 38.4376 12.7887 38.4039 12.9188 38.3391L20 34.7985L27.0828 38.3391C27.2257 38.4101 27.3844 38.4435 27.5438 38.436C27.7031 38.4286 27.858 38.3806 27.9936 38.2966C28.1293 38.2125 28.2413 38.0953 28.3189 37.9559C28.3966 37.8165 28.4374 37.6596 28.4375 37.5V25.4485C29.9985 24.191 31.2578 22.5997 32.1231 20.7916C32.9884 18.9835 33.4375 17.0045 33.4375 15ZM8.4375 15C8.4375 12.7132 9.11563 10.4777 10.3861 8.57627C11.6566 6.67482 13.4625 5.19283 15.5752 4.31769C17.688 3.44255 20.0128 3.21358 22.2557 3.65972C24.4986 4.10586 26.5589 5.20708 28.1759 6.82412C29.793 8.44117 30.8942 10.5014 31.3403 12.7443C31.7865 14.9872 31.5575 17.3121 30.6824 19.4248C29.8072 21.5376 28.3252 23.3434 26.4238 24.6139C24.5223 25.8844 22.2868 26.5625 20 26.5625C16.9346 26.5588 13.9958 25.3394 11.8282 23.1719C9.66061 21.0043 8.44122 18.0655 8.4375 15ZM26.5625 35.9829L20.4172 32.911C20.2871 32.8461 20.1438 32.8123 19.9984 32.8123C19.8531 32.8123 19.7097 32.8461 19.5797 32.911L13.4375 35.9829V26.7188C15.4415 27.8446 17.7014 28.436 20 28.436C22.2986 28.436 24.5585 27.8446 26.5625 26.7188V35.9829ZM20 23.4375C21.6688 23.4375 23.3001 22.9427 24.6876 22.0156C26.0752 21.0884 27.1566 19.7707 27.7952 18.2289C28.4338 16.6872 28.6009 14.9907 28.2754 13.354C27.9498 11.7173 27.1462 10.2138 25.9662 9.03383C24.7862 7.85383 23.2828 7.05023 21.6461 6.72467C20.0094 6.39911 18.3129 6.5662 16.7711 7.20481C15.2294 7.84343 13.9116 8.92488 12.9845 10.3124C12.0574 11.7 11.5625 13.3313 11.5625 15C11.565 17.237 12.4547 19.3817 14.0365 20.9635C15.6183 22.5453 17.763 23.4351 20 23.4375ZM20 8.43755C21.2979 8.43755 22.5667 8.82243 23.6459 9.54353C24.7251 10.2646 25.5663 11.2895 26.063 12.4887C26.5597 13.6878 26.6896 15.0073 26.4364 16.2803C26.1832 17.5533 25.5582 18.7227 24.6404 19.6404C23.7226 20.5582 22.5533 21.1832 21.2803 21.4364C20.0073 21.6897 18.6878 21.5597 17.4886 21.063C16.2895 20.5663 15.2646 19.7252 14.5435 18.646C13.8224 17.5668 13.4375 16.298 13.4375 15C13.4375 13.2596 14.1289 11.5904 15.3596 10.3597C16.5903 9.12895 18.2595 8.43755 20 8.43755Z" fill="#5878EE"/>
</svg>
