<svg width="40" height="40" viewBox="0 0 40 40" fill="none" xmlns="http://www.w3.org/2000/svg">
<path d="M39.4547 17L35.4688 9.02341C35.3404 8.76641 35.1627 8.5372 34.9458 8.34888C34.7288 8.16056 34.477 8.01681 34.2045 7.92583C33.932 7.83486 33.6443 7.79845 33.3577 7.81868C33.0711 7.8389 32.7914 7.91537 32.5344 8.04372L28.5406 10.0406L20.2391 7.84372C20.0823 7.8031 19.9177 7.8031 19.7609 7.84372L11.4594 10.0406L7.46719 8.04372C7.21012 7.91513 6.93022 7.83847 6.64349 7.81811C6.35677 7.79776 6.06885 7.83411 5.79619 7.9251C5.52352 8.01608 5.27146 8.15991 5.05442 8.34837C4.83737 8.53682 4.6596 8.76621 4.53125 9.02341L0.545317 17C0.285997 17.5188 0.243362 18.1194 0.426787 18.6697C0.610212 19.22 1.00468 19.6749 1.52344 19.9343L5.76563 22.0562L14.4547 28.2625C14.5489 28.3304 14.6548 28.3802 14.7672 28.4093L24.7672 30.9093C24.8433 30.9283 24.9215 30.9377 25 30.9375C25.2486 30.9373 25.4869 30.8383 25.6625 30.6625L34.3047 22.0203L38.4766 19.9343C38.9953 19.6749 39.3898 19.22 39.5732 18.6697C39.7566 18.1194 39.714 17.5188 39.4547 17ZM31.1734 22.4937L25.5797 18.0125C25.3993 17.8681 25.1719 17.7954 24.9412 17.8084C24.7105 17.8214 24.4928 17.9191 24.3297 18.0828C21.4156 21.0187 18.1578 20.6484 16.0813 19.3203C16.0404 19.2951 16.0059 19.2609 15.9805 19.2202C15.955 19.1796 15.9392 19.1336 15.9344 19.0859C15.9288 19.0422 15.9331 18.9977 15.9469 18.9558C15.9607 18.9139 15.9836 18.8756 16.0141 18.8437L22.8797 12.1875H28.1703L32.6094 21.0656L31.1734 22.4937ZM2.20469 18.0765C2.17885 17.9982 2.18503 17.9128 2.22188 17.839L6.20938 9.86091C6.23559 9.8089 6.27581 9.76524 6.3255 9.73488C6.3752 9.70451 6.43239 9.68863 6.49063 9.68903C6.5389 9.68908 6.58649 9.70032 6.62969 9.72185L10.1 11.4562L5.83125 20L2.36094 18.2656C2.32349 18.2462 2.29035 18.2195 2.26349 18.187C2.23664 18.1545 2.21664 18.117 2.20469 18.0765ZM24.7125 28.9625L15.4 26.6343L7.44688 20.9531L12.0063 11.8359L20 9.72028L22.3125 10.3328C22.1357 10.3672 21.9728 10.4524 21.8438 10.5781L14.7031 17.5078C14.4713 17.7395 14.2945 18.0203 14.1858 18.3296C14.0771 18.6388 14.0392 18.9685 14.0751 19.2943C14.1109 19.6201 14.2195 19.9337 14.3929 20.2119C14.5662 20.4901 14.7999 20.7258 15.0766 20.9015C18.2359 22.9203 22.0688 22.5406 25.0453 19.9812L29.8438 23.8281L24.7125 28.9625ZM37.7953 18.0765C37.7825 18.1155 37.762 18.1516 37.7352 18.1827C37.7084 18.2138 37.6757 18.2393 37.6391 18.2578L34.1688 20L29.9 11.4562L33.3703 9.72185C33.4071 9.70339 33.4471 9.69237 33.4881 9.68942C33.5292 9.68647 33.5704 9.69165 33.6094 9.70466C33.6484 9.71752 33.6845 9.73794 33.7156 9.76475C33.7467 9.79156 33.7722 9.82423 33.7906 9.86091L37.7781 17.839C37.815 17.9128 37.8212 17.9982 37.7953 18.0765ZM20.2953 33.9765C20.2352 34.2177 20.0817 34.425 19.8687 34.5531C19.6557 34.6811 19.4006 34.7193 19.1594 34.6593L12.6391 33.0297C12.5266 33.0009 12.4205 32.9511 12.3266 32.8828L8.20625 29.9437C8.10602 29.8719 8.02091 29.781 7.95579 29.6763C7.89067 29.5716 7.8468 29.4551 7.82671 29.3335C7.78612 29.0878 7.84481 28.836 7.98985 28.6336C8.13489 28.4311 8.35441 28.2946 8.60011 28.254C8.72177 28.2339 8.84619 28.238 8.96628 28.266C9.08637 28.294 9.19977 28.3453 9.3 28.4172L13.2672 31.25L19.6125 32.8359C19.7323 32.8658 19.8449 32.9191 19.944 32.9927C20.0432 33.0663 20.1268 33.1587 20.1901 33.2647C20.2534 33.3707 20.2951 33.4881 20.3129 33.6103C20.3307 33.7324 20.3242 33.8569 20.2938 33.9765H20.2953Z" fill="#5878EE"/>
</svg>
