<svg preserveAspectRatio="xMidYMid meet" data-bbox="56.693 181.418 453.544 204.094" viewBox="56.693 181.418 453.544 204.094" height="566.929" width="566.929" xmlns="http://www.w3.org/2000/svg" data-type="color" role="presentation" aria-hidden="true" aria-label="">
    <g>
        <path d="M504.718 270.433c-122.003-118.687-320.504-118.687-442.507 0-3.553 3.458-5.518 8.08-5.518 13.004 0 4.961 1.965 9.584 5.518 13.041 61.002 59.344 141.128 89.034 221.254 89.034s160.252-29.691 221.254-89.034c3.553-3.458 5.518-8.08 5.518-13.041-.001-4.924-1.966-9.547-5.519-13.004zM283.54 356.798c-42.104 0-76.384-33.223-76.384-74.039s34.28-74.001 76.384-74.001 76.384 33.186 76.384 74.001-34.28 74.039-76.384 74.039zM86.816 283.474c34.469-31.645 75.099-53.368 118.035-65.169-15.08 17.439-24.151 39.913-24.151 64.455 0 25.406 9.713 48.632 25.776 66.334-43.541-11.688-84.775-33.599-119.66-65.62zm273.827 65.582c16.025-17.664 25.739-40.928 25.739-66.296 0-24.504-9.033-46.979-24.113-64.417 42.86 11.839 83.414 33.524 117.846 65.131-34.849 31.983-76.008 53.856-119.472 65.582z" fill="#333333" data-color="1"></path>
        <path d="M283.533 333.111c-28.178 0-51.104-22.537-51.104-50.239 0-27.699 22.926-50.236 51.104-50.236s51.104 22.537 51.104 50.236c0 27.702-22.926 50.239-51.104 50.239zm0-78.185c-15.887 0-28.813 12.536-28.813 27.945s12.926 27.948 28.813 27.948c15.888 0 28.812-12.539 28.812-27.948s-12.924-27.945-28.812-27.945z" fill="#333333" data-color="1"></path>
    </g>
</svg>