<svg preserveAspectRatio="xMidYMid meet" data-bbox="34.999 19.999 130.002 160.001" viewBox="34.999 19.999 130.002 160.001" height="200" width="200" xmlns="http://www.w3.org/2000/svg" data-type="color" role="presentation" aria-hidden="true" aria-label=""><defs><style>#comp-lpsx272y6 svg [data-color="1"] {fill: #000000;}</style></defs>
    <g>
        <path d="M161.176 149.524a3.816 3.816 0 0 1-3.824-3.81v-40.635c0-3.501-2.859-6.349-6.373-6.349H49.02c-3.514 0-6.373 2.848-6.373 6.349v40.635a3.817 3.817 0 0 1-3.824 3.81 3.816 3.816 0 0 1-3.824-3.81v-40.635c0-7.702 6.289-13.968 14.02-13.968H150.98c7.73 0 14.02 6.266 14.02 13.968v40.635a3.817 3.817 0 0 1-3.824 3.81z" fill="#112F5B" data-color="1"></path>
        <path d="M130.588 180H69.412c-2.112 0-3.824-1.705-3.824-3.81s1.712-3.81 3.824-3.81h61.176c2.112 0 3.824 1.705 3.824 3.81S132.7 180 130.588 180z" fill="#112F5B" data-color="1"></path>
        <path d="M145.882 98.73a3.816 3.816 0 0 1-3.824-3.81V64.444c0-2.104 1.712-3.81 3.824-3.81s3.824 1.705 3.824 3.81V94.92a3.816 3.816 0 0 1-3.824 3.81z" fill="#112F5B" data-color="1"></path>
        <path d="M105.098 27.619H94.902c-2.112 0-3.824-1.705-3.824-3.81S92.79 20 94.902 20h10.196c2.112 0 3.824 1.705 3.824 3.81s-1.712 3.809-3.824 3.809z" fill="#112F5B" data-color="1"></path>
        <path d="M54.118 98.73a3.816 3.816 0 0 1-3.824-3.81V64.444a3.817 3.817 0 0 1 3.824-3.81 3.816 3.816 0 0 1 3.824 3.81V94.92a3.817 3.817 0 0 1-3.824 3.81z" fill="#112F5B" data-color="1"></path>
        <path d="M54.118 68.254a3.816 3.816 0 0 1-3.824-3.81C50.294 39.938 70.305 20 94.902 20c2.112 0 3.824 1.705 3.824 3.81s-1.712 3.81-3.824 3.81c-20.38 0-36.961 16.52-36.961 36.825a3.815 3.815 0 0 1-3.823 3.809z" fill="#112F5B" data-color="1"></path>
        <path d="M145.882 68.254a3.816 3.816 0 0 1-3.824-3.81c0-20.306-16.581-36.825-36.961-36.825-2.112 0-3.824-1.705-3.824-3.81s1.712-3.81 3.824-3.81c24.597 0 44.608 19.938 44.608 44.444a3.815 3.815 0 0 1-3.823 3.811z" fill="#112F5B" data-color="1"></path>
        <path d="M100 149.524a3.816 3.816 0 0 1-3.824-3.81v-20.317c0-2.104 1.712-3.81 3.824-3.81s3.824 1.705 3.824 3.81v20.317a3.817 3.817 0 0 1-3.824 3.81z" fill="#112F5B" data-color="1"></path>
        <path d="M69.412 180C50.437 180 35 164.619 35 145.714a3.817 3.817 0 0 1 3.824-3.81 3.816 3.816 0 0 1 3.824 3.81c0 14.704 12.007 26.667 26.765 26.667 2.112 0 3.824 1.705 3.824 3.81S71.524 180 69.412 180z" fill="#112F5B" data-color="1"></path>
        <path d="M130.588 180c-2.112 0-3.824-1.705-3.824-3.81s1.712-3.81 3.824-3.81c14.758 0 26.765-11.962 26.765-26.667a3.817 3.817 0 0 1 3.824-3.81 3.816 3.816 0 0 1 3.824 3.81C165 164.619 149.563 180 130.588 180z" fill="#112F5B" data-color="1"></path>
    </g>
</svg>