<svg preserveAspectRatio="xMidYMid meet" data-bbox="24.531 31 152.048 139" viewBox="24.531 31 152.048 139" xmlns="http://www.w3.org/2000/svg" data-type="color" role="presentation" aria-hidden="true" aria-label=""><defs><style>#comp-lpsx272w6 svg [data-color="1"] {fill: #000000;}</style></defs>
    <g>
        <path d="M130.6 147.5H36.7c-6 0-10.5-6.2-10.5-11.8s4.5-11.8 10.5-11.8h89.5l32.2-34.1c3.9-3.9 10.3-4 14.9-.1 4.2 4.2 4.4 10.9.4 15.3l-35.3 38.7c-2.5 2.6-5.2 3.8-7.8 3.8zM36.7 126c-4.8 0-8.5 5.2-8.5 9.8s3.7 9.8 8.5 9.8h93.9c2.6 0 4.9-1.7 6.4-3.1l35.3-38.7c3.2-3.5 3.1-9.1-.3-12.4-3.7-3.2-8.9-3.2-12.1 0l-32.5 34.4c-.2.2-.5.3-.7.3l-90-.1z" fill="#0071bc" data-color="1"></path>
        <path d="M146.6 168.7c-.3 0-.6-.2-.8-.4l-14.4-20.9c-.3-.5-.2-1.1.3-1.4.5-.3 1.1-.2 1.4.3l14.4 20.9c.3.5.2 1.1-.3 1.4-.2 0-.4.1-.6.1z" fill="#0071bc" data-color="1"></path>
        <path d="M25.6 168.7c-.2 0-.4-.1-.6-.2-.5-.3-.6-.9-.3-1.4l14.2-20.9c.3-.5.9-.6 1.4-.3s.6.9.3 1.4l-14.2 20.9c-.2.3-.5.5-.8.5z" fill="#0071bc" data-color="1"></path>
        <path d="M162.8 66.5H60.9c-.3 0-.7-.2-.8-.5s-.2-.6-.1-.9C69 44.4 89.4 31 111.9 31c22.8 0 43.2 13.4 51.9 34.1.1.3.1.7-.1.9-.2.3-.6.5-.9.5zm-100.3-2h98.8C152.6 45.3 133.4 33 111.9 33c-21.2 0-40.4 12.3-49.4 31.5z" fill="#0071bc" data-color="1"></path>
        <path d="M111.3 170c-.6 0-1-.4-1-1v-21.5c0-.6.4-1 1-1s1 .4 1 1V169c0 .6-.5 1-1 1z" fill="#0071bc" data-color="1"></path>
        <path d="M111.3 126c-.6 0-1-.4-1-1V66.7c0-.6.4-1 1-1s1 .4 1 1V125c0 .6-.5 1-1 1z" fill="#0071bc" data-color="1"></path>
        <path d="M128.4 65.9c-.5 0-.9-.3-1-.8-2.2-12.4-8.5-23.6-17.4-30.8-9 7.6-15.4 18.8-17.4 30.8-.1.5-.6.9-1.2.8-.5-.1-.9-.6-.8-1.2 2.2-12.8 9.1-24.6 18.8-32.5.4-.3.9-.3 1.2 0 9.6 7.5 16.5 19.3 18.8 32.5.1.5-.3 1.1-.8 1.2h-.2z" fill="#0071bc" data-color="1"></path>
    </g>
</svg>