<svg preserveAspectRatio="xMidYMid meet" data-bbox="20.5 20 159.002 160" viewBox="20.5 20 159.002 160" height="200" width="200" xmlns="http://www.w3.org/2000/svg" data-type="color" role="presentation" aria-hidden="true" aria-label=""><defs><style>#comp-lpsx272m1 svg [data-color="2"] {fill: #000000;}
#comp-lpsx272m1 svg [data-color="3"] {fill: #C7C7C7;}
#comp-lpsx272m1 svg [data-color="4"] {fill: #000000;}</style></defs>
    <g>
        <path d="m123.25 177.081 52.686-48.661c-1.941-2.137-2.689-5.007-2.342-7.935.351-2.93 1.781-5.901 4.253-8.232l-5.562-6.01-5.615-5.959c-.932-.997-1.881-1.977-2.825-2.962l-2.835-2.953c-1.882-1.976-3.799-3.918-5.704-5.871a1072.443 1072.443 0 0 0-23.254-23.039 1070.216 1070.216 0 0 0-23.968-22.274c-2.028-1.822-4.046-3.655-6.096-5.452l-3.064-2.707c-1.022-.901-2.04-1.808-3.073-2.698l-6.178-5.357-6.225-5.301c-2.163 2.628-5.013 4.236-7.881 4.751-2.866.51-5.736-.091-7.947-1.938L22.531 80.434c2.056 1.719 3.05 4.346 2.98 7.193-.065 2.844-1.208 5.926-3.37 8.551l5.646 4.806 5.602 4.859c.937.806 1.859 1.629 2.786 2.447l2.779 2.455c1.86 1.629 3.689 3.293 5.529 4.945a973.442 973.442 0 0 1 21.739 20.202 977.664 977.664 0 0 1 21.09 20.896c1.728 1.771 3.467 3.532 5.173 5.325l2.571 2.678c.856.893 1.718 1.782 2.563 2.686l5.093 5.404 5.043 5.451c2.47-2.33 5.445-3.654 8.244-3.874 2.802-.227 5.445.636 7.251 2.623z" fill="#FFFFFF" data-color="1"></path>
        <path d="m107.698 180-5.857-6.329-5.085-5.396c-.657-.703-1.32-1.393-1.983-2.083l-3.143-3.274c-1.271-1.336-2.557-2.649-3.843-3.964l-1.324-1.354A982.114 982.114 0 0 0 65.4 136.731a976.95 976.95 0 0 0-21.712-20.176l-1.389-1.25c-1.37-1.234-2.74-2.469-4.128-3.684l-3.451-3.049c-.699-.618-1.398-1.237-2.106-1.845l-5.606-4.862-6.508-5.543.727-.883c1.94-2.356 3.042-5.14 3.105-7.839.064-2.612-.846-4.839-2.562-6.273l-.878-.734 46.561-57.781.927.775c1.86 1.554 4.337 2.153 6.977 1.681 2.725-.489 5.274-2.03 7.175-4.338l.766-.93 7.144 6.083 6.186 5.364c.792.682 1.578 1.377 2.364 2.072l3.781 3.34c1.574 1.381 3.155 2.805 4.685 4.183l1.418 1.276a1075.89 1075.89 0 0 1 23.996 22.3 1081.95 1081.95 0 0 1 23.281 23.065l1.347 1.378c1.437 1.469 2.924 2.989 4.369 4.505l3.54 3.688c.712.742 1.425 1.483 2.128 2.235l5.612 5.955 6.353 6.864-.839.791c-2.176 2.053-3.559 4.724-3.895 7.523-.322 2.716.406 5.207 2.047 7.015l.776.854-54.413 50.255-.804-.884c-1.5-1.65-3.733-2.445-6.278-2.241-2.643.208-5.315 1.471-7.526 3.555l-.872.824zM23.755 96.01l4.802 4.088 5.61 4.866c.712.613 1.42 1.238 2.128 1.864l3.446 3.044c1.391 1.22 2.77 2.461 4.148 3.703l1.387 1.249a984.135 984.135 0 0 1 21.767 20.227 984.763 984.763 0 0 1 21.116 20.922l1.323 1.353c1.293 1.322 2.587 2.644 3.862 3.984l3.138 3.269c.671.698 1.342 1.395 2.003 2.103l5.089 5.4 4.266 4.611c2.419-1.982 5.244-3.179 8.065-3.402 2.849-.226 5.421.539 7.36 2.176l51.065-47.163c-1.586-2.2-2.262-4.982-1.91-7.955.357-2.975 1.695-5.819 3.801-8.12l-4.808-5.196-5.608-5.951a234.402 234.402 0 0 0-2.109-2.216l-3.543-3.692c-1.438-1.509-2.918-3.022-4.35-4.486l-1.347-1.379a1077.008 1077.008 0 0 0-23.228-23.012 1073.333 1073.333 0 0 0-23.941-22.249l-1.419-1.277a489.356 489.356 0 0 0-4.665-4.165l-3.785-3.344c-.778-.688-1.556-1.376-2.343-2.054l-6.181-5.36-5.334-4.541c-2.153 2.242-4.878 3.74-7.785 4.262-2.91.521-5.689-.005-7.946-1.476L24.125 80.33c1.733 1.868 2.638 4.426 2.566 7.325-.066 2.869-1.1 5.798-2.936 8.355z" fill="#2C3A51" data-color="2"></path>
        <path d="M26.727 94.877c1.42-2.608 2.174-5.372 2.247-8.001.071-2.625-.554-5.098-1.856-7.14l40.888-50.401c2.34 1.009 4.978 1.242 7.605.782 2.624-.457 5.251-1.627 7.578-3.462 15.803 13.416 31.171 27.354 46.157 41.697 14.95 14.383 29.52 29.173 43.601 44.433-1.682 2.454-2.691 5.176-2.999 7.855-.311 2.683.063 5.339 1.184 7.652l-47.444 44.11c-2.083-1.206-4.553-1.704-7.137-1.49-2.587.217-5.27 1.13-7.762 2.708-12.87-13.951-26.195-27.471-39.862-40.623-13.703-13.112-27.752-25.857-42.2-38.12z" fill="#FFF7EB" data-color="3"></path>
        <path d="M57.547 81.361c-1.197-1.066-2.102-2.245-2.679-3.57-.58-1.322-.845-2.776-.791-4.356.153-3.182 1.521-6.348 4.084-9.418 2.543-3.045 5.402-4.899 8.514-5.496 1.563-.3 3.053-.256 4.458.13 1.403.389 2.734 1.105 3.945 2.184 1.753 1.549 2.792 2.904 3.173 4.139l.224.728-4.133 4.202-.589-1.395c-.459-1.084-1.294-2.167-2.482-3.216a6.147 6.147 0 0 0-1.045-.754 4.867 4.867 0 0 0-1.105-.451c-.756-.203-1.551-.211-2.397-.027-1.728.377-3.297 1.429-4.801 3.211-1.569 1.86-2.372 3.585-2.459 5.269-.055.864.072 1.65.387 2.37.317.719.818 1.377 1.506 1.988 1.216 1.074 2.373 1.694 3.442 1.845l1.689.238-3.728 4.902-.711-.085c-1.355-.159-2.826-.957-4.502-2.438z" fill="#FFFFFF" data-color="1"></path>
        <path d="M64.417 79.953c-1.256-.176-2.559-.86-3.911-2.055-.796-.708-1.383-1.486-1.753-2.346-.369-.86-.52-1.803-.455-2.827.103-1.989 1.039-4.041 2.816-6.151 1.708-2.029 3.568-3.266 5.585-3.707 1.009-.22 1.966-.211 2.871.026.906.237 1.759.702 2.55 1.406 1.298 1.147 2.207 2.332 2.724 3.553l2.277-2.319c-.323-1.049-1.288-2.284-2.893-3.702-1.102-.981-2.297-1.632-3.556-1.984-1.261-.35-2.595-.39-3.999-.12-2.81.54-5.372 2.206-7.701 4.988-2.356 2.815-3.597 5.657-3.733 8.514-.048 1.418.19 2.721.718 3.908.525 1.19 1.348 2.254 2.441 3.228 1.527 1.349 2.864 2.092 4.014 2.23l2.005-2.642z" fill="#FF8A91" data-color="4"></path>
        <path d="M78.392 94.876c2.701-.737 5.433-2.579 8.142-5.522 2.469-2.707 4.012-5.542 4.54-8.406.61-3.32-.27-6.095-2.601-8.231-2.367-2.149-5.192-2.741-8.359-1.771-2.725.84-5.332 2.691-7.763 5.491-2.594 2.988-4.121 5.957-4.552 8.823-.453 3.154.451 5.758 2.677 7.779 2.233 2.048 4.892 2.66 7.916 1.837zm7.248-13.833c-.376 1.647-1.307 3.306-2.762 4.933-1.481 1.657-3.023 2.767-4.579 3.304-1.611.557-2.904.36-3.957-.605-1.053-.966-1.393-2.239-1.016-3.935.346-1.631 1.261-3.306 2.725-4.974 1.449-1.652 2.977-2.761 4.556-3.296 1.613-.561 2.932-.369 4.001.612 1.07.981 1.409 2.28 1.032 3.961z" fill="#FFFFFF" data-color="1"></path>
        <path d="M80.246 72.114c-2.48.764-4.843 2.447-7.098 5.039-2.409 2.769-3.803 5.451-4.193 8.039-.4 2.783.401 5.059 2.39 6.868 1.995 1.829 4.317 2.375 6.978 1.649 2.444-.665 4.926-2.361 7.435-5.092 2.285-2.51 3.674-5.063 4.156-7.671.538-2.93-.235-5.351-2.307-7.25-2.107-1.913-4.573-2.435-7.361-1.582zm6.539 8.986c-.436 1.903-1.477 3.767-3.118 5.599-1.67 1.864-3.409 3.104-5.211 3.724-2.006.693-3.664.438-4.982-.769-1.319-1.206-1.756-2.84-1.291-4.937.401-1.893 1.423-3.784 3.071-5.668 1.634-1.867 3.358-3.112 5.178-3.729 2.007-.7 3.699-.447 5.043.782 1.343 1.231 1.781 2.899 1.31 4.998z" fill="#FF8A91" data-color="4"></path>
        <path d="M84.714 106.257c-1.448-1.386-2.267-3.056-2.417-4.992-.208-2.567.915-5.237 3.349-7.922l11.199-12.351 3.687 3.442-11.153 12.177c-.948 1.036-1.467 1.988-1.586 2.912l-.003.023c-.137.912.156 1.698.897 2.402.748.711 1.56.966 2.484.78.858-.178 1.782-.79 2.738-1.821l11.229-12.104c1.215 1.162 2.444 2.309 3.647 3.485l-11.398 12.163c-2.464 2.628-5.012 3.929-7.593 3.908-1.903-.002-3.613-.707-5.08-2.102z" fill="#FFFFFF" data-color="1"></path>
        <path d="m105.033 90.509-10.351 11.134c-1.184 1.273-2.358 2.029-3.521 2.269-1.271.255-2.39-.078-3.362-1.002s-1.359-2.027-1.174-3.3c.157-1.217.814-2.46 1.973-3.728L98.856 84.66l-2.098-1.959-10.332 11.37c-2.153 2.37-3.137 4.657-2.959 6.854a6.4 6.4 0 0 0 .635 2.355 7.03 7.03 0 0 0 1.499 2.015c1.304 1.24 2.785 1.858 4.448 1.86 2.207.021 4.401-1.126 6.572-3.447l10.491-11.22-2.079-1.979z" fill="#FF8A91" data-color="4"></path>
        <path d="m96.29 116.85 6.644-6.978.57.562c1.464 1.444 3.18 2.126 5.105 2.033l.023-.001c2.086-.142 4.057-1.149 5.849-3.001 1.863-1.925 2.843-3.891 2.907-5.85.096-1.859-.654-3.59-2.225-5.139-1.435-1.415-2.891-2.807-4.335-4.211l-18.065 19.168 3.527 3.417zm14.12-14.832.875.863c.806.794 1.022 1.582-.386 3.051-.95.992-1.53 1.029-1.9.969-.296-.044-.935-.272-2.021-1.278l3.432-3.605z" fill="#FFFFFF" data-color="1"></path>
        <path d="m94.418 113.217 2.014 1.95 6.636-6.986c.448.433.896.867 1.338 1.306 1.282 1.264 2.741 1.855 4.382 1.776 1.751-.119 3.394-.968 4.926-2.554 1.605-1.662 2.434-3.3 2.483-4.919.084-1.554-.563-3.011-1.938-4.368-1.173-1.161-2.368-2.3-3.551-3.452l-16.29 17.247zm16.118-12.898c.555.534 1.105 1.073 1.652 1.615 1.384 1.365 1.21 2.95-.523 4.753-1.057 1.101-2.075 1.57-3.053 1.41-.782-.114-1.724-.724-2.843-1.816l-.468-.453 5.235-5.509z" fill="#FF8A91" data-color="4"></path>
        <path d="M116.422 131.927c2.733-.584 5.572-2.286 8.431-5.071 2.615-2.571 4.294-5.305 4.979-8.138.788-3.282.059-6.103-2.154-8.363-2.257-2.267-5.039-3.022-8.254-2.226-2.763.686-5.472 2.398-8.049 5.06-2.75 2.84-4.427 5.715-5.014 8.556-.619 3.123.136 5.78 2.259 7.913 2.119 2.164 4.738 2.925 7.802 2.269zm7.98-13.415c-.464 1.625-1.483 3.229-3.022 4.774-1.568 1.573-3.167 2.597-4.749 3.047-1.638.468-2.917.198-3.919-.822-1.009-1.013-1.273-2.31-.807-3.981.433-1.61 1.437-3.232 2.987-4.817 1.536-1.57 3.12-2.593 4.726-3.04 1.643-.474 2.941-.202 3.966.828 1.018 1.036 1.284 2.353.818 4.011z" fill="#FFFFFF" data-color="1"></path>
        <path d="M119.491 109.302c-2.517.626-4.966 2.176-7.357 4.641-2.554 2.632-4.09 5.234-4.619 7.797-.547 2.755.123 5.08 2.022 6.987 1.895 1.934 4.182 2.61 6.878 2.032 2.475-.529 5.044-2.085 7.697-4.676 2.415-2.379 3.939-4.853 4.561-7.43.694-2.896.054-5.359-1.914-7.367-2.009-2.019-4.436-2.684-7.268-1.984zm6.051 9.33c-.537 1.876-1.677 3.681-3.414 5.42-1.767 1.769-3.57 2.912-5.402 3.432-2.04.582-3.68.234-4.933-1.042-1.262-1.267-1.602-2.931-1.028-4.997.502-1.869 1.624-3.7 3.371-5.491 1.732-1.775 3.52-2.923 5.369-3.438 2.044-.59 3.712-.237 4.997 1.054 1.277 1.3 1.623 2.993 1.04 5.062z" fill="#FF8A91" data-color="4"></path>
        <path d="M124.7 145.8c1.892-4.866 3.778-9.77 5.608-14.665l-10.115 9.908-3.385-3.527 18.715-18.517 3.289 3.427a1214.6 1214.6 0 0 1-5.663 15.018l10.384-10.038 3.441 3.657-19.017 18.2-3.257-3.463z" fill="#FFFFFF" data-color="1"></path>
        <path d="m145.289 131.174-1.952-2.072-12.992 12.533a1242.25 1242.25 0 0 0 7.099-18.748l-2.099-2.186-16.874 16.66 1.924 2.005 12.679-12.447a1234.138 1234.138 0 0 1-7.013 18.42l2.118 2.247 17.11-16.412z" fill="#FF8A91" data-color="4"></path>
        <path d="m108.108 66.066-1.038 2.275 1.478 1.544-2.282.038-1.232 2.195-.367-2.245-2.233-.18 2.048-1.434-.163-2.306c.551.45 1.102.901 1.647 1.358l2.142-1.245z" fill="#FF8A91" data-color="4"></path>
        <path d="m114.344 71.898-1.057 2.266 1.465 1.558-2.282.018-1.25 2.185-.347-2.249c-.743-.069-1.488-.133-2.236-.195l2.062-1.42-.146-2.306 1.64 1.368 2.151-1.225z" fill="#FF8A91" data-color="4"></path>
        <path fill="#FF8A91" d="m120.533 77.782-1.076 2.258 1.45 1.572-2.281-.003-1.268 2.174-.328-2.253-2.238-.209 2.073-1.402-.126-2.307 1.627 1.382 2.167-1.212z" data-color="4"></path>
        <path d="m126.668 83.724-1.09 2.244 1.437 1.584-2.28-.023-1.287 2.164c-.101-.753-.205-1.504-.313-2.251l-2.235-.229 2.085-1.384-.107-2.31 1.615 1.397 2.175-1.192z" fill="#FF8A91" data-color="4"></path>
        <path d="m132.755 89.716-1.109 2.235c.48.527.955 1.059 1.428 1.592l-2.282-.04-1.302 2.15-.299-2.25-2.233-.249 2.096-1.366-.087-2.311 1.602 1.412 2.186-1.173z" fill="#FF8A91" data-color="4"></path>
        <path d="m70.453 107.733-1.068 2.246 1.392 1.464-2.215.101-1.255 2.174-.295-2.178-2.161-.113 2.025-1.455-.096-2.244c.523.423 1.044.848 1.56 1.278l2.113-1.273z" fill="#FF8A91" data-color="4"></path>
        <path d="m76.346 113.244-1.087 2.237 1.379 1.477-2.215.081-1.273 2.163-.276-2.182c-.719-.046-1.441-.088-2.164-.127l2.04-1.441-.079-2.243 1.554 1.287 2.121-1.252z" fill="#FF8A91" data-color="4"></path>
        <path fill="#FF8A91" d="m82.193 118.804-1.106 2.228 1.366 1.49-2.215.062-1.291 2.152-.256-2.185-2.167-.141 2.051-1.423-.06-2.244 1.542 1.301 2.136-1.24z" data-color="4"></path>
        <path d="m87.99 124.418-1.12 2.215 1.353 1.502-2.214.042-1.309 2.142c-.078-.73-.158-1.458-.243-2.182l-2.165-.16 2.062-1.406-.041-2.245 1.531 1.315 2.146-1.223z" fill="#FF8A91" data-color="4"></path>
        <path d="m93.742 130.08-1.139 2.205c.452.499.899 1.003 1.345 1.509l-2.217.025-1.324 2.128-.229-2.18-2.163-.18 2.074-1.388-.021-2.247 1.519 1.329 2.155-1.201z" fill="#FF8A91" data-color="4"></path>
    </g>
</svg>